<svg xmlns="http://www.w3.org/2000/svg" xmlns:xlink="http://www.w3.org/1999/xlink" width="210" zoomAndPan="magnify" viewBox="0 0 157.5 144.75" height="193" preserveAspectRatio="xMidYMid meet" version="1.0"><defs><g/><clipPath id="1f4fafff6c"><path d="M 78 98 L 144 98 L 144 143.648438 L 78 143.648438 Z M 78 98 " clip-rule="nonzero"/></clipPath></defs><path fill="#f68712" d="M 58.359375 23.90625 C 55.898438 25.460938 52.714844 26.949219 48.691406 28.292969 C 39.753906 31.277344 30.339844 29.789062 21.398438 32.171875 C 19.136719 32.777344 15.773438 34.386719 13.734375 36.492188 C 13.734375 36.492188 19.972656 24.644531 38.148438 17.566406 C 39.789062 16.925781 41.527344 16.324219 43.367188 15.777344 C 54.53125 12.445312 51.386719 7.753906 46.5 9.132812 C 46.5 9.132812 50.546875 6.277344 56.285156 6.496094 C 64.933594 6.824219 70.703125 16.136719 58.359375 23.90625 " fill-opacity="1" fill-rule="nonzero"/><path fill="#f68712" d="M 102.769531 23.980469 C 100.972656 31.566406 95.464844 38.230469 89.246094 43.582031 C 82.359375 49.511719 74.597656 53.828125 70.050781 56.007812 C 40.375 70.230469 10.59375 64.898438 7.058594 79.398438 C 7.058594 79.398438 -0.00390625 66.359375 16.65625 57.121094 C 25.828125 52.035156 30.96875 49.402344 52.386719 41.621094 C 58.855469 39.269531 66.75 36.402344 73.738281 31.808594 C 78.5 28.671875 82.839844 24.742188 86.023438 19.625 C 91.53125 10.765625 84.582031 1.972656 72 1.230469 C 91.160156 0.15625 106.027344 10.25 102.769531 23.980469 " fill-opacity="1" fill-rule="nonzero"/><path fill="#3871c1" d="M 113.644531 76.628906 C 107.46875 81.40625 99.835938 85.914062 90.664062 89.980469 C 55.421875 105.59375 26.140625 102.175781 19.320312 117.109375 C 19.320312 117.109375 9.992188 97.523438 42.519531 86.910156 C 71.125 77.582031 90.816406 68.601562 103.757812 60.050781 C 131.980469 41.398438 128.101562 24.769531 114.535156 10.921875 C 115.347656 11.410156 116.121094 11.886719 116.824219 12.335938 C 139.804688 28.484375 141.3125 55.238281 113.644531 76.628906 " fill-opacity="1" fill-rule="nonzero"/><path fill="#40b93c" d="M 141.917969 90.644531 C 137.894531 97.683594 132.003906 103.566406 124.945312 108.542969 C 116.480469 114.515625 106.332031 119.1875 95.722656 122.996094 C 81.789062 127.996094 47.566406 132.15625 46.460938 140.148438 C 46.460938 140.148438 42.097656 132.015625 57.578125 124.097656 C 75.351562 115.003906 94.058594 107.902344 111.703125 98.53125 C 113.421875 97.617188 116.730469 95.949219 120.609375 93.472656 C 132.671875 85.800781 150.308594 70.40625 143.429688 45.984375 C 143.683594 46.367188 156.253906 65.570312 141.917969 90.644531 " fill-opacity="1" fill-rule="nonzero"/><g clip-path="url(#1f4fafff6c)"><path fill="#40b93c" d="M 143.203125 98.042969 C 143.203125 98.042969 142.488281 108.570312 127.664062 122.15625 C 127.625 122.195312 127.582031 122.230469 127.542969 122.269531 C 119.601562 129.515625 110.039062 134.753906 101.875 138.1875 C 89.3125 143.476562 78.238281 143.570312 78.125 143.605469 C 91.972656 139.261719 112.203125 127.796875 126.609375 116.265625 C 134.691406 109.796875 140.945312 103.308594 143.203125 98.042969 " fill-opacity="1" fill-rule="nonzero"/></g><path fill="#fbc108" d="M 58.359375 23.90625 C 51.332031 20.976562 44.472656 18.953125 38.148438 17.566406 C 39.789062 16.925781 41.527344 16.324219 43.367188 15.777344 C 54.53125 12.445312 51.386719 7.753906 46.5 9.132812 C 46.5 9.132812 50.546875 6.277344 56.285156 6.496094 C 64.933594 6.824219 70.703125 16.136719 58.359375 23.90625 " fill-opacity="1" fill-rule="nonzero"/><path fill="#fbc108" d="M 102.769531 23.980469 C 100.972656 31.566406 95.464844 38.230469 89.246094 43.582031 C 84.226562 38.96875 79.011719 35.078125 73.738281 31.808594 C 78.5 28.671875 82.839844 24.742188 86.023438 19.625 C 91.53125 10.765625 84.582031 1.972656 72 1.230469 C 91.160156 0.15625 106.027344 10.25 102.769531 23.980469 " fill-opacity="1" fill-rule="nonzero"/><path fill="#00adef" d="M 113.644531 76.628906 C 110.632812 70.523438 107.3125 65.015625 103.757812 60.050781 C 131.980469 41.398438 128.101562 24.769531 114.535156 10.921875 C 115.347656 11.410156 116.121094 11.886719 116.824219 12.335938 C 139.804688 28.484375 141.3125 55.238281 113.644531 76.628906 " fill-opacity="1" fill-rule="nonzero"/><path fill="#80cc28" d="M 143.203125 98.042969 C 143.203125 98.042969 142.488281 108.570312 127.664062 122.15625 C 127.335938 120.15625 126.984375 118.191406 126.609375 116.265625 C 134.691406 109.796875 140.945312 103.308594 143.203125 98.042969 " fill-opacity="1" fill-rule="nonzero"/><path fill="#80cc28" d="M 124.945312 108.542969 C 123.675781 103.226562 122.226562 98.210938 120.609375 93.472656 C 132.671875 85.800781 150.308594 70.40625 143.429688 45.984375 C 143.683594 46.367188 156.253906 65.570312 141.917969 90.644531 C 137.894531 97.683594 132.003906 103.566406 124.945312 108.542969 " fill-opacity="1" fill-rule="nonzero"/><g fill="#000000" fill-opacity="1"><g transform="translate(33.222287, 82.847536)"><g><path d="M 2.625 -0.984375 L 1.03125 -0.390625 L -1.96875 -8.390625 L -0.375 -8.984375 Z M 2.625 -0.984375 "/></g></g><g transform="translate(36.886282, 81.47294)"><g><path d="M 2.578125 -0.96875 L 1.03125 -0.390625 L -1.96875 -8.390625 L -0.140625 -9.0625 L 5 -5.109375 L 5.125 -5.203125 L 3.203125 -10.328125 L 4.71875 -10.890625 L 7.71875 -2.890625 L 6.09375 -2.28125 L 0.640625 -6.515625 L 0.515625 -6.453125 Z M 2.578125 -0.96875 "/></g></g><g transform="translate(45.652526, 78.18417)"><g><path d="M 2.578125 -0.96875 L 1.03125 -0.390625 L -1.96875 -8.390625 L -0.140625 -9.0625 L 5 -5.109375 L 5.125 -5.203125 L 3.203125 -10.328125 L 4.71875 -10.890625 L 7.71875 -2.890625 L 6.09375 -2.28125 L 0.640625 -6.515625 L 0.515625 -6.453125 Z M 2.578125 -0.96875 "/></g></g><g transform="translate(54.418769, 74.895399)"><g><path d="M 4.40625 -1.53125 C 3.675781 -1.25 2.972656 -1.148438 2.296875 -1.234375 C 1.617188 -1.328125 1.003906 -1.625 0.453125 -2.125 C -0.0859375 -2.625 -0.53125 -3.328125 -0.875 -4.234375 C -1.21875 -5.148438 -1.34375 -5.972656 -1.25 -6.703125 C -1.164062 -7.441406 -0.898438 -8.066406 -0.453125 -8.578125 C -0.00390625 -9.085938 0.582031 -9.484375 1.3125 -9.765625 C 2.039062 -10.035156 2.738281 -10.125 3.40625 -10.03125 C 4.082031 -9.945312 4.691406 -9.65625 5.234375 -9.15625 C 5.785156 -8.65625 6.234375 -7.945312 6.578125 -7.03125 C 6.921875 -6.125 7.050781 -5.300781 6.96875 -4.5625 C 6.882812 -3.820312 6.617188 -3.195312 6.171875 -2.6875 C 5.722656 -2.1875 5.132812 -1.800781 4.40625 -1.53125 Z M 3.890625 -2.90625 C 4.578125 -3.15625 5.015625 -3.5625 5.203125 -4.125 C 5.398438 -4.695312 5.316406 -5.460938 4.953125 -6.421875 C 4.597656 -7.367188 4.160156 -7.992188 3.640625 -8.296875 C 3.117188 -8.609375 2.515625 -8.640625 1.828125 -8.390625 C 1.140625 -8.128906 0.695312 -7.707031 0.5 -7.125 C 0.3125 -6.550781 0.394531 -5.789062 0.75 -4.84375 C 1.113281 -3.882812 1.554688 -3.253906 2.078125 -2.953125 C 2.597656 -2.660156 3.203125 -2.644531 3.890625 -2.90625 Z M 3.890625 -2.90625 "/></g></g><g transform="translate(63.130326, 71.627145)"><g><path d="M 4.75 -1.78125 L 2.84375 -1.0625 L -2.859375 -8.0625 L -1.171875 -8.6875 L 3 -3.4375 L 3.140625 -3.5 L 2.828125 -10.1875 L 4.453125 -10.796875 Z M 4.75 -1.78125 "/></g></g><g transform="translate(70.720811, 68.779476)"><g><path d="M 1.3125 -4.5 L 2.125 -2.3125 L 5.9375 -3.75 L 6.4375 -2.421875 L 1.03125 -0.390625 L -1.96875 -8.390625 L 3.34375 -10.375 L 3.84375 -9.046875 L 0.125 -7.65625 L 0.828125 -5.78125 L 4.078125 -7 L 4.5625 -5.71875 Z M 1.3125 -4.5 "/></g></g><g transform="translate(77.594902, 66.200571)"><g><path d="M 3.59375 -1.21875 C 3.039062 -1.007812 2.519531 -0.890625 2.03125 -0.859375 C 1.550781 -0.835938 1.125 -0.882812 0.75 -1 C 0.382812 -1.113281 0.0703125 -1.273438 -0.1875 -1.484375 L 0.296875 -2.875 L 0.421875 -2.921875 C 0.804688 -2.660156 1.222656 -2.492188 1.671875 -2.421875 C 2.117188 -2.347656 2.585938 -2.40625 3.078125 -2.59375 C 3.503906 -2.75 3.789062 -2.953125 3.9375 -3.203125 C 4.082031 -3.460938 4.097656 -3.75 3.984375 -4.0625 C 3.910156 -4.257812 3.816406 -4.40625 3.703125 -4.5 C 3.585938 -4.601562 3.429688 -4.671875 3.234375 -4.703125 C 3.035156 -4.734375 2.789062 -4.738281 2.5 -4.71875 L 1.359375 -4.5625 C 0.585938 -4.445312 -0.0390625 -4.515625 -0.53125 -4.765625 C -1.019531 -5.023438 -1.378906 -5.457031 -1.609375 -6.0625 C -1.773438 -6.507812 -1.8125 -6.945312 -1.71875 -7.375 C -1.625 -7.800781 -1.394531 -8.191406 -1.03125 -8.546875 C -0.675781 -8.898438 -0.203125 -9.191406 0.390625 -9.421875 C 1.003906 -9.648438 1.5625 -9.765625 2.0625 -9.765625 C 2.570312 -9.765625 3.039062 -9.65625 3.46875 -9.4375 L 3.09375 -8.078125 L 2.953125 -8.015625 C 2.640625 -8.160156 2.316406 -8.238281 1.984375 -8.25 C 1.648438 -8.257812 1.289062 -8.195312 0.90625 -8.0625 C 0.476562 -7.894531 0.175781 -7.691406 0 -7.453125 C -0.164062 -7.222656 -0.203125 -6.96875 -0.109375 -6.6875 C -0.00390625 -6.4375 0.148438 -6.265625 0.359375 -6.171875 C 0.578125 -6.085938 0.894531 -6.070312 1.3125 -6.125 L 2.46875 -6.3125 C 3.300781 -6.425781 3.960938 -6.359375 4.453125 -6.109375 C 4.953125 -5.859375 5.316406 -5.414062 5.546875 -4.78125 C 5.734375 -4.28125 5.789062 -3.800781 5.71875 -3.34375 C 5.644531 -2.894531 5.425781 -2.488281 5.0625 -2.125 C 4.707031 -1.757812 4.21875 -1.457031 3.59375 -1.21875 Z M 3.59375 -1.21875 "/></g></g><g transform="translate(84.463525, 63.623718)"><g><path d="M 3.40625 -10.40625 L 3.90625 -9.078125 L 1.609375 -8.21875 L 4.109375 -1.546875 L 2.53125 -0.953125 L 0.03125 -7.625 L -2.28125 -6.75 L -2.78125 -8.078125 Z M 3.40625 -10.40625 "/></g></g><g transform="translate(91.091527, 61.137137)"><g><path d="M 1.03125 -0.390625 L -1.96875 -8.390625 L 1.25 -9.59375 C 2.082031 -9.90625 2.78125 -9.945312 3.34375 -9.71875 C 3.90625 -9.5 4.316406 -9.054688 4.578125 -8.390625 C 4.753906 -7.898438 4.773438 -7.453125 4.640625 -7.046875 C 4.503906 -6.648438 4.222656 -6.28125 3.796875 -5.9375 L 3.84375 -5.8125 C 4.132812 -5.800781 4.398438 -5.710938 4.640625 -5.546875 C 4.878906 -5.390625 5.144531 -5.128906 5.4375 -4.765625 L 7.140625 -2.671875 L 5.515625 -2.0625 L 3.828125 -4.15625 C 3.660156 -4.375 3.5 -4.523438 3.34375 -4.609375 C 3.1875 -4.703125 3.019531 -4.75 2.84375 -4.75 C 2.675781 -4.757812 2.46875 -4.71875 2.21875 -4.625 L 1.375 -4.3125 L 2.625 -0.984375 Z M 2.34375 -6.109375 C 3.101562 -6.390625 3.347656 -6.890625 3.078125 -7.609375 C 2.804688 -8.335938 2.289062 -8.5625 1.53125 -8.28125 L 0.09375 -7.734375 L 0.90625 -5.5625 Z M 2.34375 -6.109375 "/></g></g><g transform="translate(98.56717, 58.332552)"><g><path d="M 7.6875 -2.875 L 6.015625 -2.25 L 4.71875 -3.875 L 1.65625 -2.71875 L 1.734375 -0.65625 L 0.109375 -0.046875 L -0.125 -9.078125 L 1.921875 -9.84375 Z M 1.421875 -7.75 L 1.59375 -4.21875 L 3.78125 -5.03125 L 1.5625 -7.796875 Z M 1.421875 -7.75 "/></g></g></g></svg>